<svg xmlns="http://www.w3.org/2000/svg" viewBox="0 0 331.9 239.68"><defs><style>.cls-1{fill:#4e3f17;}.cls-2{fill:#808285;}.cls-3{fill:#94792e;}.cls-4{fill:#231f20;}</style></defs><title>Item Bag</title><g id="Layer_4" data-name="Layer 4"><path class="cls-1" d="M377.8,250.15c0-.32,0-.64-.07-1l-.18.05a4.32,4.32,0,0,1-3.7-.82,3.84,3.84,0,0,1-2.66-1.85c-1.61-2.64-2.4-6.21.14-8.6l.16-.13a14.76,14.76,0,0,0-1.22-.85c0-.19,0-.38-.09-.57a16.22,16.22,0,0,0,1.39-9.29,15.28,15.28,0,0,0-2-5.87,11.51,11.51,0,0,0-6.57-9.51,10.33,10.33,0,0,0-4.68-.75l-.49-.4c-.19.15-.37.3-.54.46l-.06.07a11.27,11.27,0,0,0-2.73.8,6,6,0,0,0-.61,0c-13.05-2.23-26.1,6.69-37.67,11.94a336,336,0,0,0-37.75,20.56c-6.11,3.77-12.14,7.64-18.05,11.71-3.26,2.25-6.68,4.4-9.41,7.29a33.14,33.14,0,0,0-3.47,4,6.56,6.56,0,0,0-.94,2.15,6.75,6.75,0,0,0-3.67,2.25c-1.23,1.24-2.4,2.42-3.5,3.77-.16.19-.3.39-.44.59A169.11,169.11,0,0,1,219,294.48c-8.18,6.39-16.09,13.32-22,21.93a95.68,95.68,0,0,0-6.68,12.11c-2.12,4.32-4.76,9.52-5.82,14.24-2.4,10.71,5.6,17.57,14.77,18.07a8.74,8.74,0,0,0,.87,4.41l1.11,2.32c.23,1.06.47,2.12.71,3.18a15.71,15.71,0,0,0,2.5,10.73l.12.51c1.46,5.93,6.56,7.78,11.14,6.73A15.3,15.3,0,0,0,223,388c11.37,9.29,28,9.59,38.81-1.18l2.74-2.69a22.48,22.48,0,0,0,12-3.76c9.21-6.12,17.69-13.66,26.33-20.57L325.09,342c4.7-3.77,7.28-10,8-16.28l.25-.2c2-1.59,2-1.52-.25.19,0-.08,0-.15,0-.22,4.37-4.1,10.27-6.61,14.34-11.12a30,30,0,0,0,7.3-15.49c11.15-6.25,18.61-18,18.24-31.23a36.12,36.12,0,0,0-.63-5.83A14.47,14.47,0,0,0,377.8,250.15Z" transform="translate(-177.77 -208.63)"/></g><g id="Layer_5" data-name="Layer 5"><path class="cls-2" d="M350,282.41c-10.3-5.68-23.58-4.54-33.61,1.07-.83.46-1.63,1-2.41,1.51-.69.13-1.37.29-2,.47-8.73,2.31-15.85,8-21.46,14.9A42.18,42.18,0,0,0,274.29,310c-.45.14-.89.27-1.34.44A35,35,0,0,0,260,319a33.54,33.54,0,0,0-24,19.54,32.84,32.84,0,0,0-2.58,14.24,48.71,48.71,0,0,1,14.91-6.06,4.73,4.73,0,0,1,4.7,1.75,4.33,4.33,0,0,1,1.94,7.25l-.55.57a3.7,3.7,0,0,1,1.31,5,40.92,40.92,0,0,1-5.89,7.11c-2,1.89-4.41,3-6.49,4.79-.69.58-2.11,0-1.7-1a46.69,46.69,0,0,1,3.39-6.56c-1.33.51-2.63,1.07-3.91,1.68a61.81,61.81,0,0,1-6.53,3.6,40.92,40.92,0,0,0,12.77,23.75,14.83,14.83,0,0,0,19.4,1.16,14.32,14.32,0,0,0,5.59-12.32,30.33,30.33,0,0,0,19.76-15.39,22.75,22.75,0,0,0,3.29-4.43A26.27,26.27,0,0,0,307,356a24.41,24.41,0,0,0,5.1-.9,30.24,30.24,0,0,0,17.8-14.39,26,26,0,0,0,14.52-7.81c9.22-2.52,17.08-9.41,19.14-20.39C365.8,300.56,360.85,288.36,350,282.41Z" transform="translate(-177.77 -208.63)"/></g><g id="Layer_3" data-name="Layer 3"><path class="cls-3" d="M501.25,343.11c-.17-18.4-1.35-36.47-9.93-53.11-16.72-32.47-56.82-35.92-89.78-34l-1-.52-.34-.21v0c-.67-.32-1.35-.63-2.06-.92-3.42-1.4-6.61.06-8.65,2.6a46.65,46.65,0,0,1-7.33-3.32c-4.57-2.56-12-1.47-14.36,3.77a43,43,0,0,1-7.09,11.5,14.62,14.62,0,0,0-6,5.83,9.72,9.72,0,0,0-.84,1.84c-.45.3-.89.61-1.34.93a14.68,14.68,0,0,0-5.62,7.36l-.44.23a5.2,5.2,0,0,0-5.4,1.08,64.94,64.94,0,0,0-9,7.71,5.82,5.82,0,0,0-1.62,3.87,27.47,27.47,0,0,0-12.29,4.15c-1.13.72-2.27,1.42-3.41,2.12-3.73,1.65-7.35,3.38-10.78,5a183.67,183.67,0,0,0-31.26,18.81c-6.53,4.86-11.65,9.89-14,17.91Q247.13,351.48,236,357.9c-11.42,6.61-24.53,13.59-31.05,25.65-12.17,22.51-.49,48.92,23.54,56.42,11.88,3.7,26.09,2.12,38.42,2.17,21.49.1,43,.56,64.49-.65,17.31-1,34.82-2.92,51.75-7a23.87,23.87,0,0,0,7.42-1.44l10.08-3.73c1.78-.63,3.55-1.27,5.31-2l1.15-.47a29.71,29.71,0,0,0,2.75,2.4c14.23-4.8,29-7.65,43.8-9.83,5.89-1.79,12.2-3.5,17.44-1.65a4.74,4.74,0,0,1,.88.41c.88-.54,1.75-1.09,2.62-1.67a24.69,24.69,0,0,0,4-.94c13-4.21,22.63-15.75,22.67-29.78C501.26,371.58,501.38,357.34,501.25,343.11Z" transform="translate(-177.77 -208.63)"/></g><g id="Layer_2" data-name="Layer 2"><path class="cls-4" d="M509.67,358.85c.13-14.5-1.76-29.35-4.4-43.51s-7.26-28.74-16.83-40c-21.13-24.78-61.63-22.85-91-24.83-1.31-.18-2.62-.39-3.92-.61-2.61-.46-5.2-1-7.76-1.69-1.31-.28-2.63-.59-3.95-.91-2.63-.64-5.26-1.34-7.89-1.88a15.93,15.93,0,0,0-1.05-2.34c.24-1,.46-2.05.66-3.08s.38-2.07.54-3.12C378,225,370,208,356.3,208.65q-.85,0-1.74.06c-.58,0-1.16.09-1.75.15-1.37.4-2.76.71-4.16,1l-1.4.25C326,214,307,223,288.6,234.85L286.73,236a404.8,404.8,0,0,0-56.93,43.5,367.23,367.23,0,0,0-36.3,38.12c-7.64,9.32-20.38,24.21-14,36.77a18.58,18.58,0,0,0,2.87,4.09,31.12,31.12,0,0,0,8.28,4.69,15.91,15.91,0,0,0,1.88.52c3.69.74,5.15.76,6.32,4.69a29,29,0,0,1,.66,9.06c-.33,8.54-5,16.08-5.18,24.74,0,.53,0,1.07,0,1.61.3,2.79.67,5.53,1.17,8.13.25,1.3.54,2.56.86,3.77.27,1.53.6,3,1,4.43A30.6,30.6,0,0,0,211.64,441a31.12,31.12,0,0,0,3.86,2,129.17,129.17,0,0,0,12.75,2.41c1.42.21,2.84.39,4.27.55,18.46,1.68,36.89,2.42,55.27,2.33l5-.05a622,622,0,0,0,173.52-25.83c1.69-.5,3.46-.94,5.28-1.34,1.2-.27,2.43-.52,3.66-.77C483,419,490,417,498,417c4.28,0,8.27-5.79,8.9-9.39,1.14-6.45.11-13.34.57-19.87.56-7.86,1.71-15.66,2.06-23.54C509.61,362.43,509.66,360.64,509.67,358.85Zm-314.91-2c-6.56-.52-10.82-4-9.75-12.77,1-7.89,6.77-14.34,11.64-20.2,5.93-7.15,11.94-14.22,18.18-21.1a379.27,379.27,0,0,1,85.57-69.84c12.28-7.4,25.19-13.74,39.05-17.53,7.09-1.94,19.5-5.4,25.55.72,3.89,4,2.5,10.18,1.69,15a90.31,90.31,0,0,1-7.36,24.09c-7,14.61-19.2,26.07-32.11,35.5-13.1,9.57-27.35,17.47-41.19,25.9-15.86,9.67-31.74,19.42-48.63,27.21C230.88,346.86,208.09,357.93,194.76,356.85ZM249,349c-13.5,10.12-33.36,16.61-45.06,29.35a34.69,34.69,0,0,0-3.21-13.73C218.29,364.78,233.16,354,249,349Zm249.12,7c.25,9.65-.28,19.47-.63,28.82-.14,3.44.18,17.1-3.49,19.2-7,4-16,6-24.38,7-1.7.25-3.42.44-5.11.6C408,420,353,441,294.61,439.5l-4.95.12c-11.48.28-23,.6-34.66,1.38-8-1-16-4-24.69-4.38-1.26-.3-2.5-.62-3.75-.95q-3.74-1-7.47-2.12a33.34,33.34,0,0,1-3.83-1.91c-6.1-3.58-10.63-9.11-11.25-16.55a8.88,8.88,0,0,1,0-3.09,11.32,11.32,0,0,0,2.58,1.9,14.41,14.41,0,0,0,1.48.71,14.89,14.89,0,0,0,5,.95C227,418,242,418,255,412c-13-8-29-2-44.18-3.92a11.84,11.84,0,0,1-3.79-1.32,11.29,11.29,0,0,1-5-5.76c-3.15-7.87,3.77-17.05,9.48-21.61,6.55-5.22,14.41-8.4,21.47-12.83,10.16-6.37,20.17-13,29.8-20.15q29.42-21.87,59.63-42.62c13.34-9.16,26.65-18.19,37.76-30.07,5.88-6.28,9.84-13,14.24-20.27,0,0,17.22,3.77,18.8,3.95s2.86.3,4.28.42c17.56,2.19,36.28,1.92,53.62,5.71,1.58.34,3.14.72,4.69,1.13,34.8,9.33,36.67,45.73,41.12,75.89A128.11,128.11,0,0,1,498.12,356Z" transform="translate(-177.77 -208.63)"/></g></svg>