<svg xmlns="http://www.w3.org/2000/svg" viewBox="0 0 274.41 379.25"><defs><style>.cls-1{fill:#9bdbf5;}.cls-2{fill:#eef8fb;}.cls-3{fill:#231f20;}.cls-4{fill:#f5fafd;}</style></defs><title>Potion</title><g id="Layer_4" data-name="Layer 4"><path class="cls-1" d="M553,300a69.39,69.39,0,0,1-2.95-19.06c-10.87-4.51-23-5.68-34.74-6.39q-27.71-1.67-55.42-3c-35.93-1.75-72.1-3.46-108,.07a293.08,293.08,0,0,0-59.05,11.54c-9.18,2.87-5.26,17.36,4,14.46q5.58-1.74,11.22-3.2a13,13,0,0,0,9.68,12.35c5.78,1.69,12.39.55,18.3.3l22-.93,91.83-3.89c5.07-.22,7.48-4.49,7.21-8.42q9.38.3,18.74.7Q514.5,296.25,553,300Z" transform="translate(-282.61 -65.25)"/></g><g id="Layer_3" data-name="Layer 3"><path class="cls-2" d="M544.76,290.41Q420.62,295,296.41,288.26c-4.19-.23-7.31,3.63-7.5,7.5a274.86,274.86,0,0,0,.74,38,7.48,7.48,0,0,0,3.53,5.87,9,9,0,0,0,.07,7.26,11.26,11.26,0,0,0,3.12,4.37,12.13,12.13,0,0,0-.25,1.81c-.4,6.34,4.23,12.23,10,13.31a18.13,18.13,0,0,0,2.87,2.45,18.8,18.8,0,0,0,10.19,15.44,7.89,7.89,0,0,0,1.19.46c-.44.85-.87,1.72-1.25,2.6-1.37,3.1-1.37,6.54,1.17,9.09,1.93,1.93,5.59,2.92,8.21,1.69a6.37,6.37,0,0,0,4.85,2.65,7.76,7.76,0,0,0,1.05,7.45c2.46,3.19,6.17,3.42,9.67,1.93,2-.85,4-1.73,6-2.62a9.12,9.12,0,0,0,.64,3.6c.91,4.56,5.68,8.34,10.89,5.2l1.29-.78c1.12,3.85,5.13,7.16,9.3,5.68,1-.33,1.91-.68,2.86-1a5.89,5.89,0,0,0,6.51,2.75c1.08,3.55,4.35,6.27,8.77,4.66l3.05-1.12c1.65,2.58,4.57,4.22,8,3l5.5-2a6.85,6.85,0,0,0,7.48,2.35l3.45-1a7.62,7.62,0,0,0,8.73,4.43Q431.8,432,437,430.67a7.66,7.66,0,0,0,8.32,3.69c3.05-.66,6.06-1.42,9.05-2.26a6.77,6.77,0,0,0,4.38.2,150.5,150.5,0,0,0,24.66-9.44,5.89,5.89,0,0,0,2-1.64l3.2-1.29c3.54-1.41,6.11-4.62,5.4-8.52l19.73-7.84c3.51-1.39,5.91-4.26,5.38-8.23a7.67,7.67,0,0,0-.77-2.36l0,0c6.27-1.84,6.58-8.24,3.36-11.91,14-19.83,22.37-43.54,25-68.18.25-.37.5-.76.73-1.16a8.2,8.2,0,0,0,.34-6.91C554.81,302.12,552.8,290.11,544.76,290.41Z" transform="translate(-282.61 -65.25)"/></g><g id="Layer_2" data-name="Layer 2"><path class="cls-3" d="M471.77,79.13A23.64,23.64,0,0,0,468.92,77a56.4,56.4,0,0,0-8.29-4.34c-20.86-7.58-58.89-12.83-88.72,2.4-3.78,1.94-5.39,5.87-5,10a13.41,13.41,0,0,0,1.31,4.84c1.08,2.13.85,3,.53,5.61q-2.6,20.88-3.87,41.91c-.84,13.77-1.15,27.52-1.19,41.31a5.2,5.2,0,0,1-.51,2.74,5.33,5.33,0,0,1-2.73,1.8c-36,14.34-63.1,47.51-73,85-11.18,42.23-2.89,90.38,24.84,124.64,28.65,35.39,76,51.76,120.48,51.67,21.42,0,43.26-4.39,61.7-15.67,17.74-10.86,31.4-27.5,41.43-45.72,16.87-30.67,24.58-66.78,19.7-101.56-3.11-22.18-11.38-43.68-25-61.58-.62-.81-1.24-1.62-1.88-2.42C513,197.86,494.22,183.49,469,180.5a5.05,5.05,0,0,0-1.23,0c3-27.71,3.94-54.89,7.86-82.31a35.75,35.75,0,0,0-1.39-14.73,20.36,20.36,0,0,0-1.51-3.16A8.39,8.39,0,0,0,471.77,79.13Zm-89.44,95.58q-.81-26.13-.46-52.27.15-10.53.5-21.07.18-5.27.4-10.53c.13-3,.06-5.83,2.67-7.82a15.37,15.37,0,0,1,5.57-2.3,97.56,97.56,0,0,1,32.49-3,85.31,85.31,0,0,1,13.93,2.34c2.41.62,4.8,1.33,7.14,2.15,1.58.55,5.52,1.37,6.27,2.84-13.61,5.06-27.16,7.88-41.78,5.47-3.6-.59-21.07-6.39-19.89,2.31a6.05,6.05,0,0,0,1.52,2.89c6.91,8.24,18.78,10.2,29.53,9.94a105.91,105.91,0,0,0,40-9q-5,43.33-7.8,86.91c-.19,3-.33,6.63,1.85,9s6.64,2.07,9.77,2.15c21.6.5,41.57,13.61,54.33,31.05,27.86,38.06,29.72,92,10.65,134.27a124.19,124.19,0,0,1-19.89,31.05,113.83,113.83,0,0,1-54.47,34.15c-21.21,5.9-43.44,4.2-64.53-1.3-24.48-6.38-48-18.3-65.64-36.74-22.14-23.19-33.35-56.14-31.05-88.12a126.16,126.16,0,0,1,21.6-61.2c11.88-17.54,30.1-36.07,52.41-38.11,6-.55,12.51,1.35,16.2,6.11Q382.82,190.33,382.33,174.71Z" transform="translate(-282.61 -65.25)"/></g><g id="Layer_6" data-name="Layer 6"><path class="cls-4" d="M532.1,284.06a7,7,0,0,0-3.27-6c.21-1.72.49-3.44.83-5.16,2.19-5.4-1.85-12.28-8.59-10.38-2.61.74-5.22,1.37-7.84,1.92a6.14,6.14,0,0,0-2.88-.31l-23.42,2.83a8.08,8.08,0,0,0-2.16-.8,39.33,39.33,0,0,0-23.39,1.61l-.69.06a90.15,90.15,0,0,0-10.7.91l-1.82,0a49.26,49.26,0,0,0-8.24,0l-2.69,0a7.63,7.63,0,0,0-.85-.09l-7.36-.46a2.84,2.84,0,0,0-.44-.1,213.76,213.76,0,0,0-44.32-3,7.64,7.64,0,0,0-4-1.12c-16.28-.28-32.55-.66-48.29-5.31a6.92,6.92,0,0,0-4.51.2c-3.65-3-10.58-2.67-12.62,3.29A145.73,145.73,0,0,0,317.83,364c2.08,5.06,8.48,6.54,12.12,3.88a477.23,477.23,0,0,0,48.15,9.29,7.08,7.08,0,0,0,1.72,4.71l1.33.06c1.15,0,2.29.08,3.44.18a81.79,81.79,0,0,1,11.85,1.46,3.48,3.48,0,0,1,1.28.56q19.68.39,39.26,2.6l7.66,1q3.27,0,6.55,0h1.43a6.34,6.34,0,0,0,2.12-1.77c3.18-.16,6.37-.35,9.55-.59a7.84,7.84,0,0,0,3.69-1.22,118.39,118.39,0,0,0,29.33-4.05,8.29,8.29,0,0,0,.92-.32c3.06,2.25,7.56,2.13,10.49-2.19,3.35-5,6.28-10.15,9.3-15.31a6.92,6.92,0,0,0,.75-5.4l2.88-5.56,3.93-7.59.64-1.23c.14-.35.28-.7.41-1.05.72-2.26,1.34-4.55,1.94-6.85.19-.81.4-1.62.62-2.42.65-2.58,1.27-5.17,1.94-7.74a19.81,19.81,0,0,1,1.68-5.52Q532.45,301.5,532.1,284.06Z" transform="translate(-282.61 -65.25)"/></g><g id="Layer_5" data-name="Layer 5"><path class="cls-3" d="M314.92,255.23c-3.26,2.06-3.83,6.92-4.59,10.7a205.09,205.09,0,0,0,3.93,96.58,15.67,15.67,0,0,0,3,6.35c3.69,4.09,11.72,4.5,16.82,5.66,7.5,1.7,15,3.22,22.59,4.61,14.57,2.67,29.23,4.83,43.91,6.74,27.12,3.52,54.65,5.07,81.91,2.25a177.79,177.79,0,0,0,19.9-3,15.47,15.47,0,0,0,5.54-2,15.79,15.79,0,0,0,4.25-5.06,159,159,0,0,0,21.33-107.7c-1.54-9.47-5.63-11.5-14.88-10.36-62.49,7.76-125.92,4.06-188.37-4.11-4.24-.56-9.13-2.47-13.41-1.46A6.13,6.13,0,0,0,314.92,255.23Zm211.82,8.87a146.43,146.43,0,0,1-20,112.34c-2.2,3.34-5.71,3.84-9.53,4.45-56.25,8.93-113.61-1.52-169.37-13.12-4-.84-6.79-1.74-8.06-5.87a190.74,190.74,0,0,1-2.5-103.17c27.09,3.52,54.62,7.2,81.91,8.7a815.87,815.87,0,0,0,83.2.32q14.86-.71,29.7-2" transform="translate(-282.61 -65.25)"/></g></svg>